# xmcd CD database file
#
# Track frame offsets:
#	150
#	11422
#	25232
#	43512
#	60120
#	77625
#	89010
#	103292
#	115362
#	133682
#	152795
#	175717
#	193950
#
# Disc length: 2665 seconds
#
# Revision: 0
# Processed by: cddbd v1.5PL3 Copyright (c) Steve Scherf et al.
# Submitted via: CDex 1.50beta10
#
DISCID=a60a670d
DTITLE=Robert 'Jr.' Lockwood - The Legend Live
DYEAR=2003
DGENRE=Blues
TTITLE0=Meet Me In The Bottom
TTITLE1=Feel Like Blowin My Horn
TTITLE2=Mean Mistreater Mama
TTITLE3=She's Little And She's Low
TTITLE4=How Long Blues
TTITLE5=Sweet Home Chicago
TTITLE6=Exactly Like You
TTITLE7=Love In Vain
TTITLE8=From Four Until Late
TTITLE9=Ramblin On My Mind
TTITLE10=Big Leg Woman
TTITLE11=In The Evening
TTITLE12=Farwell Speech
EXTD=YEAR: 2003
EXTT0=
EXTT1=
EXTT2=
EXTT3=
EXTT4=
EXTT5=
EXTT6=
EXTT7=
EXTT8=
EXTT9=
EXTT10=
EXTT11=
EXTT12=
PLAYORDER=
